<svg width="1908" height="315" viewBox="0 0 1908 315" fill="none" xmlns="http://www.w3.org/2000/svg">
<path opacity="0.5" d="M3.34097 306.155C1.16202 306.518 -0.309307 308.58 0.0546629 310.759C0.418633 312.938 2.48008 314.409 4.65903 314.045L3.34097 306.155ZM4.65903 314.045C564.472 220.535 876.47 104.003 1129.26 45.4707C1255.75 16.1852 1367.57 1.3484 1488.67 10.8704C1609.79 20.3934 1740.42 54.2993 1904.46 122.789L1907.54 115.407C1742.98 46.6969 1611.5 12.503 1489.3 2.89501C1367.09 -6.71397 1254.39 8.28709 1127.46 37.6769C873.43 96.4954 563.028 212.665 3.34097 306.155L4.65903 314.045Z" fill="url(#paint0_linear_1_2)"/>
<defs>
<linearGradient id="paint0_linear_1_2" x1="1264.75" y1="-32.4106" x2="1264.75" y2="119.1" gradientUnits="userSpaceOnUse">
<stop stop-color="white"/>
<stop offset="0.494792" stop-color="white" stop-opacity="0"/>
<stop offset="1" stop-color="white"/>
</linearGradient>
</defs>
</svg>
